<svg xmlns="http://www.w3.org/2000/svg" viewBox="0 0 120 120">
  <path d="M 63,27 C 42,32 22,50 16,72 C 13,83 12,90 18,94 C 27,90 34,82 44,72 C 54,62 62,50 66,40 C 69,32 71,26 70,23 C 68,21 66,23 63,27 Z"
        fill="#e6231e" stroke="#a3160f" stroke-width="2" stroke-linejoin="round"/>
  <path d="M 56,38 C 46,50 34,64 24,78" stroke="#ff7a1a" stroke-width="3" stroke-linecap="round" fill="none" opacity="0.7"/>
  <path d="M 64,24 C 66,15 74,9 84,10 C 82,18 74,24 66,28 Z" fill="#3a9a3a" stroke="#276b27" stroke-width="1.5" stroke-linejoin="round"/>
  <path d="M 63,26 C 70,22 78,20 85,22" stroke="#276b27" stroke-width="1.4" fill="none" stroke-linecap="round"/>
</svg>
